<svg xmlns="http://www.w3.org/2000/svg"  viewBox="0 0 50 50" width="150px" height="150px"><path d="M 5 5 L 5 45 L 45 45 L 45 5 L 5 5 z M 7 7 L 43 7 L 43 43 L 7 43 L 7 7 z M 19 13 C 16.243 13 14 15.243 14 18 L 14 32 C 14 34.757 16.243 37 19 37 C 21.757 37 24 34.757 24 32 L 24 31.035156 L 28.466797 35.503906 C 29.441797 36.478906 30.721953 36.964844 32.001953 36.964844 C 33.281953 36.964844 34.563109 36.478906 35.537109 35.503906 C 37.486109 33.554906 37.485844 30.381281 35.589844 28.488281 L 30.894531 23 L 32 23 C 34.757 23 37 20.757 37 18 C 37 15.243 34.757 13 32 13 L 19 13 z M 19 15 C 20.654 15 22 16.346 22 18 L 22 32 C 22 33.654 20.654 35 19 35 C 17.346 35 16 33.654 16 32 L 16 18 C 16 16.346 17.346 15 19 15 z M 22.974609 15 L 32 15 C 33.654 15 35 16.346 35 18 C 35 19.654 33.654 21 32 21 L 24 21 L 24 18 C 24 16.87 23.609609 15.838 22.974609 15 z M 24.001953 23 L 28.263672 23 L 34.123047 29.845703 C 35.293047 31.015703 35.293047 32.919844 34.123047 34.089844 C 32.953047 35.259844 31.050859 35.259844 29.880859 34.089844 L 24.107422 28.314453 C 24.076422 28.283453 24.035953 28.271141 24.001953 28.244141 L 24.001953 23 z"/></svg>